<svg width="282" height="240" viewBox="0 0 282 240" fill="none" xmlns="http://www.w3.org/2000/svg">
<path d="M281.204 99.7676C281.204 122.816 275.52 145.509 264.655 165.835C253.79 186.162 238.08 203.496 218.916 216.301C199.752 229.106 177.726 236.987 154.788 239.246C131.851 241.505 108.71 238.073 87.4164 229.252C66.1225 220.432 47.3325 206.496 32.7108 188.68C18.0891 170.863 8.08698 149.716 3.59047 127.11C-0.906042 104.505 0.241832 81.1391 6.93241 59.0832C13.623 37.0273 25.6498 16.9619 41.9474 0.664219L63.8491 22.5659C51.1532 35.2618 41.7843 50.8928 36.5723 68.0744C31.3604 85.256 30.4662 103.458 33.969 121.067C37.4718 138.677 45.2634 155.151 56.6538 169.03C68.0441 182.91 82.6815 193.765 99.2695 200.636C115.858 207.507 133.884 210.181 151.752 208.421C169.62 206.662 186.779 200.522 201.708 190.547C216.637 180.572 228.875 167.069 237.339 151.234C245.802 135.4 250.23 117.722 250.23 99.7676H281.204Z" fill="url(#paint0_linear_13_3253)"/>
<defs>
<linearGradient id="paint0_linear_13_3253" x1="141.051" y1="-40.3857" x2="141.051" y2="239.921" gradientUnits="userSpaceOnUse">
<stop stop-color="#15B9B9"/>
<stop offset="1" stop-color="#3C1DFF"/>
</linearGradient>
</defs>
</svg>
